<mxfile host="app.diagrams.net" agent="Mozilla/5.0 (Windows NT 10.0; Win64; x64) AppleWebKit/537.36 (KHTML, like Gecko) Chrome/139.0.0.0 Safari/537.36" version="28.2.0">
  <diagram name="Página-1" id="Q3KTrH_Cg-qdvFPdpqpn">
    <mxGraphModel dx="420" dy="221" grid="1" gridSize="10" guides="1" tooltips="1" connect="1" arrows="1" fold="1" page="1" pageScale="1" pageWidth="827" pageHeight="1169" math="0" shadow="0">
      <root>
        <mxCell id="0" />
        <mxCell id="1" parent="0" />
        <mxCell id="zSkQ0qeUGLdLpaIA1OXH-1" value="" style="endArrow=classic;html=1;rounded=0;" edge="1" parent="1">
          <mxGeometry width="50" height="50" relative="1" as="geometry">
            <mxPoint x="330" y="260" as="sourcePoint" />
            <mxPoint x="330" y="280" as="targetPoint" />
            <Array as="points">
              <mxPoint x="380" y="260" />
              <mxPoint x="380" y="280" />
            </Array>
          </mxGeometry>
        </mxCell>
        <mxCell id="zSkQ0qeUGLdLpaIA1OXH-2" value="Eleitor" style="shape=umlActor;verticalLabelPosition=bottom;verticalAlign=top;html=1;" vertex="1" parent="1">
          <mxGeometry x="80" y="90" width="30" height="60" as="geometry" />
        </mxCell>
        <mxCell id="zSkQ0qeUGLdLpaIA1OXH-3" style="edgeStyle=orthogonalEdgeStyle;rounded=0;orthogonalLoop=1;jettySize=auto;html=1;curved=0;" edge="1" parent="1">
          <mxGeometry relative="1" as="geometry">
            <mxPoint x="100" y="219.6" as="sourcePoint" />
            <mxPoint x="210" y="219.6" as="targetPoint" />
          </mxGeometry>
        </mxCell>
        <mxCell id="zSkQ0qeUGLdLpaIA1OXH-4" value="" style="html=1;points=[[0,0,0,0,5],[0,1,0,0,-5],[1,0,0,0,5],[1,1,0,0,-5]];perimeter=orthogonalPerimeter;outlineConnect=0;targetShapes=umlLifeline;portConstraint=eastwest;newEdgeStyle={&quot;curved&quot;:0,&quot;rounded&quot;:0};" vertex="1" parent="1">
          <mxGeometry x="90" y="200" width="10" height="240" as="geometry" />
        </mxCell>
        <mxCell id="zSkQ0qeUGLdLpaIA1OXH-7" value="Validar Documento" style="text;html=1;align=center;verticalAlign=middle;resizable=0;points=[];autosize=1;strokeColor=none;fillColor=none;strokeWidth=1;fontSize=7;" vertex="1" parent="1">
          <mxGeometry x="110" y="200" width="80" height="20" as="geometry" />
        </mxCell>
        <mxCell id="zSkQ0qeUGLdLpaIA1OXH-8" value="" style="endArrow=classic;html=1;rounded=0;" edge="1" parent="1">
          <mxGeometry width="50" height="50" relative="1" as="geometry">
            <mxPoint x="220" y="470" as="sourcePoint" />
            <mxPoint x="320" y="470" as="targetPoint" />
          </mxGeometry>
        </mxCell>
        <mxCell id="zSkQ0qeUGLdLpaIA1OXH-9" value="Eleitor" style="shape=umlLifeline;perimeter=lifelinePerimeter;whiteSpace=wrap;html=1;container=1;dropTarget=0;collapsible=0;recursiveResize=0;outlineConnect=0;portConstraint=eastwest;newEdgeStyle={&quot;curved&quot;:0,&quot;rounded&quot;:0};" vertex="1" parent="1">
          <mxGeometry x="165" y="100" width="100" height="460" as="geometry" />
        </mxCell>
        <mxCell id="zSkQ0qeUGLdLpaIA1OXH-10" value="Voto" style="shape=umlLifeline;perimeter=lifelinePerimeter;whiteSpace=wrap;html=1;container=1;dropTarget=0;collapsible=0;recursiveResize=0;outlineConnect=0;portConstraint=eastwest;newEdgeStyle={&quot;curved&quot;:0,&quot;rounded&quot;:0};" vertex="1" parent="1">
          <mxGeometry x="275" y="100" width="100" height="340" as="geometry" />
        </mxCell>
        <mxCell id="zSkQ0qeUGLdLpaIA1OXH-64" style="edgeStyle=orthogonalEdgeStyle;rounded=0;orthogonalLoop=1;jettySize=auto;html=1;curved=0;" edge="1" parent="zSkQ0qeUGLdLpaIA1OXH-10">
          <mxGeometry relative="1" as="geometry">
            <mxPoint x="-174.95999999999998" y="201.31" as="sourcePoint" />
            <mxPoint x="-64.96000000000001" y="201.31" as="targetPoint" />
          </mxGeometry>
        </mxCell>
        <mxCell id="zSkQ0qeUGLdLpaIA1OXH-71" value="" style="html=1;points=[[0,0,0,0,5],[0,1,0,0,-5],[1,0,0,0,5],[1,1,0,0,-5]];perimeter=orthogonalPerimeter;outlineConnect=0;targetShapes=umlLifeline;portConstraint=eastwest;newEdgeStyle={&quot;curved&quot;:0,&quot;rounded&quot;:0};" vertex="1" parent="zSkQ0qeUGLdLpaIA1OXH-10">
          <mxGeometry x="-64.96" y="185.31" width="10" height="154.69" as="geometry" />
        </mxCell>
        <mxCell id="zSkQ0qeUGLdLpaIA1OXH-69" value="Votar" style="text;html=1;align=center;verticalAlign=middle;resizable=0;points=[];autosize=1;strokeColor=none;fillColor=none;strokeWidth=1;fontSize=7;" vertex="1" parent="zSkQ0qeUGLdLpaIA1OXH-10">
          <mxGeometry x="-144.95999999999998" y="185.31" width="40" height="20" as="geometry" />
        </mxCell>
        <mxCell id="zSkQ0qeUGLdLpaIA1OXH-11" value="Selecionar candidato" style="text;html=1;align=center;verticalAlign=middle;resizable=0;points=[];autosize=1;strokeColor=none;fillColor=none;strokeWidth=1;fontSize=7;" vertex="1" parent="1">
          <mxGeometry x="225" y="450" width="90" height="20" as="geometry" />
        </mxCell>
        <mxCell id="zSkQ0qeUGLdLpaIA1OXH-16" value="" style="endArrow=classic;html=1;rounded=0;" edge="1" parent="1">
          <mxGeometry width="50" height="50" relative="1" as="geometry">
            <mxPoint x="330" y="220" as="sourcePoint" />
            <mxPoint x="430" y="220" as="targetPoint" />
          </mxGeometry>
        </mxCell>
        <mxCell id="zSkQ0qeUGLdLpaIA1OXH-17" value="Validar candidato" style="text;html=1;align=center;verticalAlign=middle;resizable=0;points=[];autosize=1;strokeColor=none;fillColor=none;strokeWidth=1;fontSize=7;" vertex="1" parent="1">
          <mxGeometry x="335" y="200" width="80" height="20" as="geometry" />
        </mxCell>
        <mxCell id="zSkQ0qeUGLdLpaIA1OXH-18" value="" style="endArrow=classic;html=1;rounded=0;dashed=1;" edge="1" parent="1">
          <mxGeometry width="50" height="50" relative="1" as="geometry">
            <mxPoint x="430" y="239.57" as="sourcePoint" />
            <mxPoint x="330" y="239.57" as="targetPoint" />
          </mxGeometry>
        </mxCell>
        <mxCell id="zSkQ0qeUGLdLpaIA1OXH-19" value="Verificar se existe" style="text;html=1;align=center;verticalAlign=middle;resizable=0;points=[];autosize=1;strokeColor=none;fillColor=none;strokeWidth=1;fontSize=7;" vertex="1" parent="1">
          <mxGeometry x="340" y="220" width="80" height="20" as="geometry" />
        </mxCell>
        <mxCell id="zSkQ0qeUGLdLpaIA1OXH-20" value="Candidato" style="shape=umlLifeline;perimeter=lifelinePerimeter;whiteSpace=wrap;html=1;container=1;dropTarget=0;collapsible=0;recursiveResize=0;outlineConnect=0;portConstraint=eastwest;newEdgeStyle={&quot;curved&quot;:0,&quot;rounded&quot;:0};" vertex="1" parent="1">
          <mxGeometry x="385" y="100" width="100" height="340" as="geometry" />
        </mxCell>
        <mxCell id="zSkQ0qeUGLdLpaIA1OXH-21" value="" style="html=1;points=[[0,0,0,0,5],[0,1,0,0,-5],[1,0,0,0,5],[1,1,0,0,-5]];perimeter=orthogonalPerimeter;outlineConnect=0;targetShapes=umlLifeline;portConstraint=eastwest;newEdgeStyle={&quot;curved&quot;:0,&quot;rounded&quot;:0};" vertex="1" parent="zSkQ0qeUGLdLpaIA1OXH-20">
          <mxGeometry x="45" y="100" width="10" height="150" as="geometry" />
        </mxCell>
        <mxCell id="zSkQ0qeUGLdLpaIA1OXH-22" value="Exception Error(&quot;Candidato não existe&quot;)" style="text;html=1;align=center;verticalAlign=middle;resizable=0;points=[];autosize=1;strokeColor=none;fillColor=none;strokeWidth=1;fontSize=7;" vertex="1" parent="1">
          <mxGeometry x="305" y="260" width="150" height="20" as="geometry" />
        </mxCell>
        <mxCell id="zSkQ0qeUGLdLpaIA1OXH-23" value="UEv" style="shape=umlLifeline;perimeter=lifelinePerimeter;whiteSpace=wrap;html=1;container=1;dropTarget=0;collapsible=0;recursiveResize=0;outlineConnect=0;portConstraint=eastwest;newEdgeStyle={&quot;curved&quot;:0,&quot;rounded&quot;:0};" vertex="1" parent="1">
          <mxGeometry x="497" y="100" width="100" height="340" as="geometry" />
        </mxCell>
        <mxCell id="zSkQ0qeUGLdLpaIA1OXH-24" value="" style="html=1;points=[[0,0,0,0,5],[0,1,0,0,-5],[1,0,0,0,5],[1,1,0,0,-5]];perimeter=orthogonalPerimeter;outlineConnect=0;targetShapes=umlLifeline;portConstraint=eastwest;newEdgeStyle={&quot;curved&quot;:0,&quot;rounded&quot;:0};" vertex="1" parent="zSkQ0qeUGLdLpaIA1OXH-23">
          <mxGeometry x="45" y="100" width="10" height="220" as="geometry" />
        </mxCell>
        <mxCell id="zSkQ0qeUGLdLpaIA1OXH-25" value="" style="endArrow=classic;html=1;rounded=0;" edge="1" parent="1">
          <mxGeometry width="50" height="50" relative="1" as="geometry">
            <mxPoint x="440" y="320" as="sourcePoint" />
            <mxPoint x="540" y="320" as="targetPoint" />
          </mxGeometry>
        </mxCell>
        <mxCell id="zSkQ0qeUGLdLpaIA1OXH-26" value="Receber o voto" style="text;html=1;align=center;verticalAlign=middle;resizable=0;points=[];autosize=1;strokeColor=none;fillColor=none;strokeWidth=1;fontSize=7;" vertex="1" parent="1">
          <mxGeometry x="455" y="300" width="70" height="20" as="geometry" />
        </mxCell>
        <mxCell id="zSkQ0qeUGLdLpaIA1OXH-29" value="" style="endArrow=classic;html=1;rounded=0;" edge="1" parent="1">
          <mxGeometry width="50" height="50" relative="1" as="geometry">
            <mxPoint x="217.5" y="220" as="sourcePoint" />
            <mxPoint x="217.5" y="240" as="targetPoint" />
            <Array as="points">
              <mxPoint x="267.5" y="220" />
              <mxPoint x="267.5" y="240" />
            </Array>
          </mxGeometry>
        </mxCell>
        <mxCell id="zSkQ0qeUGLdLpaIA1OXH-30" value="&lt;div&gt;Se não é válido:&lt;/div&gt;Exception&lt;div&gt;&lt;span style=&quot;background-color: transparent; color: light-dark(rgb(0, 0, 0), rgb(255, 255, 255));&quot;&gt;Error(&quot;Documento Inválido&quot;)&lt;/span&gt;&lt;/div&gt;" style="text;html=1;align=left;verticalAlign=middle;resizable=0;points=[];autosize=1;strokeColor=none;fillColor=none;strokeWidth=1;fontSize=7;" vertex="1" parent="1">
          <mxGeometry x="220" y="185" width="110" height="40" as="geometry" />
        </mxCell>
        <mxCell id="zSkQ0qeUGLdLpaIA1OXH-5" value="" style="html=1;points=[[0,0,0,0,5],[0,1,0,0,-5],[1,0,0,0,5],[1,1,0,0,-5]];perimeter=orthogonalPerimeter;outlineConnect=0;targetShapes=umlLifeline;portConstraint=eastwest;newEdgeStyle={&quot;curved&quot;:0,&quot;rounded&quot;:0};" vertex="1" parent="1">
          <mxGeometry x="210" y="200" width="10" height="60" as="geometry" />
        </mxCell>
        <mxCell id="zSkQ0qeUGLdLpaIA1OXH-6" value="" style="html=1;points=[[0,0,0,0,5],[0,1,0,0,-5],[1,0,0,0,5],[1,1,0,0,-5]];perimeter=orthogonalPerimeter;outlineConnect=0;targetShapes=umlLifeline;portConstraint=eastwest;newEdgeStyle={&quot;curved&quot;:0,&quot;rounded&quot;:0};" vertex="1" parent="1">
          <mxGeometry x="320" y="200" width="10" height="150" as="geometry" />
        </mxCell>
        <mxCell id="zSkQ0qeUGLdLpaIA1OXH-103" value="" style="endArrow=classic;html=1;rounded=0;" edge="1" parent="1">
          <mxGeometry width="50" height="50" relative="1" as="geometry">
            <mxPoint x="220" y="307" as="sourcePoint" />
            <mxPoint x="220" y="327" as="targetPoint" />
            <Array as="points">
              <mxPoint x="270" y="307" />
              <mxPoint x="270" y="327" />
            </Array>
          </mxGeometry>
        </mxCell>
        <mxCell id="zSkQ0qeUGLdLpaIA1OXH-106" value="&lt;div&gt;Se já votou:&lt;/div&gt;Exception&amp;nbsp;&lt;span style=&quot;background-color: transparent; color: light-dark(rgb(0, 0, 0), rgb(255, 255, 255));&quot;&gt;Error(&quot;Já votou&quot;)&lt;/span&gt;" style="text;html=1;align=left;verticalAlign=middle;resizable=0;points=[];autosize=1;strokeColor=none;fillColor=none;strokeWidth=1;fontSize=7;" vertex="1" parent="1">
          <mxGeometry x="220" y="279" width="110" height="30" as="geometry" />
        </mxCell>
        <mxCell id="zSkQ0qeUGLdLpaIA1OXH-109" style="edgeStyle=orthogonalEdgeStyle;rounded=0;orthogonalLoop=1;jettySize=auto;html=1;curved=0;dashed=1;" edge="1" parent="1">
          <mxGeometry relative="1" as="geometry">
            <mxPoint x="209.99999999999997" y="327" as="sourcePoint" />
            <mxPoint x="99.96" y="327" as="targetPoint" />
            <Array as="points">
              <mxPoint x="129.96" y="327" />
              <mxPoint x="129.96" y="327" />
            </Array>
          </mxGeometry>
        </mxCell>
        <mxCell id="zSkQ0qeUGLdLpaIA1OXH-110" value="Solicitar tipo de voto" style="text;html=1;align=center;verticalAlign=middle;resizable=0;points=[];autosize=1;strokeColor=none;fillColor=none;strokeWidth=1;fontSize=7;" vertex="1" parent="1">
          <mxGeometry x="104.96" y="310" width="90" height="20" as="geometry" />
        </mxCell>
        <mxCell id="zSkQ0qeUGLdLpaIA1OXH-114" value="" style="endArrow=classic;html=1;rounded=0;" edge="1" parent="1">
          <mxGeometry width="50" height="50" relative="1" as="geometry">
            <mxPoint x="100" y="357" as="sourcePoint" />
            <mxPoint x="210" y="357" as="targetPoint" />
          </mxGeometry>
        </mxCell>
        <mxCell id="zSkQ0qeUGLdLpaIA1OXH-115" value="Selecionar tipo de voto" style="text;html=1;align=center;verticalAlign=middle;resizable=0;points=[];autosize=1;strokeColor=none;fillColor=none;strokeWidth=1;fontSize=7;" vertex="1" parent="1">
          <mxGeometry x="105" y="340" width="90" height="20" as="geometry" />
        </mxCell>
        <mxCell id="zSkQ0qeUGLdLpaIA1OXH-117" value="&lt;div&gt;Receber voto&lt;/div&gt;" style="text;html=1;align=left;verticalAlign=middle;resizable=0;points=[];autosize=1;strokeColor=none;fillColor=none;strokeWidth=1;fontSize=7;" vertex="1" parent="1">
          <mxGeometry x="221" y="410" width="70" height="20" as="geometry" />
        </mxCell>
        <mxCell id="zSkQ0qeUGLdLpaIA1OXH-118" value="" style="endArrow=classic;html=1;rounded=0;" edge="1" parent="1">
          <mxGeometry width="50" height="50" relative="1" as="geometry">
            <mxPoint x="220" y="427" as="sourcePoint" />
            <mxPoint x="542" y="427" as="targetPoint" />
          </mxGeometry>
        </mxCell>
      </root>
    </mxGraphModel>
  </diagram>
</mxfile>
